<svg version="1.1" id="Layer_1" xmlns="http://www.w3.org/2000/svg" xmlns:xlink="http://www.w3.org/1999/xlink" x="0px" y="0px" viewBox="0 0 95.7 28" style="enable-background:new 0 0 95.7 28;" xml:space="preserve"><style type="text/css">
	.st0{fill-rule:evenodd;clip-rule:evenodd;fill:#004588;}
	.st1{fill-rule:evenodd;clip-rule:evenodd;fill:url(#SVGID_1_);}
	.st2{fill-rule:evenodd;clip-rule:evenodd;fill:url(#SVGID_00000034059924422313178740000005430547424503914902_);}
	.st3{fill-rule:evenodd;clip-rule:evenodd;fill:url(#SVGID_00000029017134260850834220000010010527748912308120_);}
	.st4{fill-rule:evenodd;clip-rule:evenodd;fill:url(#SVGID_00000158710315109973005330000005272863936990598308_);}
	.st5{fill-rule:evenodd;clip-rule:evenodd;fill:url(#SVGID_00000072974561725687396160000006221327564821608084_);}
</style><g><g><path class="st0" d="M7,1.6l-1.5,7c-0.4,2-1.2,5.6,4.6,5.6c1.6,0,3.8-0.3,5.3-1.8c1-0.9,1.5-2.4,1.8-3.8l1.5-7.1h-3.3l-1.5,7.2
			c-0.3,1.2-0.9,3-3.1,3c-0.8,0-1.6-0.3-1.9-1c-0.2-0.5-0.1-1.2,0-1.9l1.6-7.3L7,1.6L7,1.6z"></path><polygon class="st0" points="18.5,13.9 21.5,13.9 23.5,4.3 25.8,13.9 30.4,13.9 33,1.6 30,1.6 28.1,10.8 25.9,1.6 21.2,1.6 		"></polygon><polygon class="st0" points="32.6,13.9 36.2,13.9 38.8,1.6 35.3,1.6 		"></polygon><polygon class="st0" points="38.5,13.9 41.5,13.9 43.5,4.3 45.7,13.9 50.3,13.9 52.9,1.6 49.9,1.6 48,10.8 45.8,1.6 41.1,1.6 		
			"></polygon><path class="st0" d="M53.5,7.8c-1,4.6,1.7,6.4,5,6.4c2.9,0,6.7-1.5,7.8-6.4c0.6-3,0.1-6.5-4.9-6.5c-0.9,0-3.3,0.1-5.2,1.7
			C54.4,4.5,53.7,7,53.5,7.8L53.5,7.8z M57,7.8c0.5-2.1,1.5-4.1,3.7-4.1c0.8,0,1.5,0.2,1.9,0.9c0.3,0.6,0.5,1.4,0.1,3.1
			c-0.4,1.7-1.3,4-3.7,4C56.8,11.7,56.6,9.8,57,7.8L57,7.8z"></path><polygon class="st0" points="69.6,13.9 73.7,13.9 80.8,1.6 77.4,1.6 72.5,10.5 71.6,1.6 67.9,1.6 		"></polygon><polygon class="st0" points="79.6,13.9 88.9,13.9 89.5,11.5 83.4,11.5 84,8.9 89.5,8.9 90,6.5 84.5,6.5 85.1,4 90.9,4 91.4,1.6 
			82.2,1.6 		"></polygon></g><radialGradient id="SVGID_1_" cx="8.5226" cy="9.1617" r="5.3368" gradientTransform="matrix(1 0 0 -1 0 30)" gradientUnits="userSpaceOnUse"><stop offset="0" style="stop-color:#E75236"></stop><stop offset="9.540000e-02" style="stop-color:#E64431"></stop><stop offset="0.33" style="stop-color:#E42627"></stop><stop offset="0.5618" style="stop-color:#E21120"></stop><stop offset="0.7874" style="stop-color:#E1041B"></stop><stop offset="1" style="stop-color:#E1001A"></stop></radialGradient><path class="st1" d="M10.8,17.8c3.6,0,6.5,2,6.5,4.5c0,2.4-2.9,4.4-6.5,4.4s-6.5-2-6.5-4.4C4.2,19.9,7.1,17.8,10.8,17.8L10.8,17.8z
		"></path><radialGradient id="SVGID_00000145031974387231119480000002405221049648782496_" cx="26.4689" cy="9.1617" r="5.3363" gradientTransform="matrix(1 0 0 -1 0 30)" gradientUnits="userSpaceOnUse"><stop offset="0" style="stop-color:#E75236"></stop><stop offset="9.540000e-02" style="stop-color:#E64431"></stop><stop offset="0.33" style="stop-color:#E42627"></stop><stop offset="0.5618" style="stop-color:#E21120"></stop><stop offset="0.7874" style="stop-color:#E1041B"></stop><stop offset="1" style="stop-color:#E1001A"></stop></radialGradient><path style="fill-rule:evenodd;clip-rule:evenodd;fill:url(#SVGID_00000145031974387231119480000002405221049648782496_);" d="
		M28.7,17.8c3.6,0,6.5,2,6.5,4.5c0,2.4-2.9,4.4-6.5,4.4c-3.6,0-6.5-2-6.5-4.4C22.2,19.9,25.1,17.8,28.7,17.8L28.7,17.8z"></path><radialGradient id="SVGID_00000079444940543121426810000005873386463802004925_" cx="44.573" cy="9.1617" r="5.3364" gradientTransform="matrix(1 0 0 -1 0 30)" gradientUnits="userSpaceOnUse"><stop offset="0" style="stop-color:#E75236"></stop><stop offset="9.540000e-02" style="stop-color:#E64431"></stop><stop offset="0.33" style="stop-color:#E42627"></stop><stop offset="0.5618" style="stop-color:#E21120"></stop><stop offset="0.7874" style="stop-color:#E1041B"></stop><stop offset="1" style="stop-color:#E1001A"></stop></radialGradient><path style="fill-rule:evenodd;clip-rule:evenodd;fill:url(#SVGID_00000079444940543121426810000005873386463802004925_);" d="
		M46.8,17.8c3.6,0,6.5,2,6.5,4.5c0,2.4-2.9,4.4-6.5,4.4s-6.5-2-6.5-4.4C40.3,19.9,43.2,17.8,46.8,17.8L46.8,17.8z"></path><radialGradient id="SVGID_00000068663414963334119810000005648876621940154788_" cx="63.306" cy="9.1617" r="5.3364" gradientTransform="matrix(1 0 0 -1 0 30)" gradientUnits="userSpaceOnUse"><stop offset="0" style="stop-color:#E75236"></stop><stop offset="9.540000e-02" style="stop-color:#E64431"></stop><stop offset="0.33" style="stop-color:#E42627"></stop><stop offset="0.5618" style="stop-color:#E21120"></stop><stop offset="0.7874" style="stop-color:#E1041B"></stop><stop offset="1" style="stop-color:#E1001A"></stop></radialGradient><path style="fill-rule:evenodd;clip-rule:evenodd;fill:url(#SVGID_00000068663414963334119810000005648876621940154788_);" d="
		M65.5,17.8c3.6,0,6.5,2,6.5,4.5c0,2.4-2.9,4.4-6.5,4.4c-3.6,0-6.5-2-6.5-4.4C59,19.9,61.9,17.8,65.5,17.8L65.5,17.8z"></path><radialGradient id="SVGID_00000102523638982023983300000003392413255431161762_" cx="81.4096" cy="9.1617" r="5.3365" gradientTransform="matrix(1 0 0 -1 0 30)" gradientUnits="userSpaceOnUse"><stop offset="0" style="stop-color:#E75236"></stop><stop offset="9.540000e-02" style="stop-color:#E64431"></stop><stop offset="0.33" style="stop-color:#E42627"></stop><stop offset="0.5618" style="stop-color:#E21120"></stop><stop offset="0.7874" style="stop-color:#E1041B"></stop><stop offset="1" style="stop-color:#E1001A"></stop></radialGradient><path style="fill-rule:evenodd;clip-rule:evenodd;fill:url(#SVGID_00000102523638982023983300000003392413255431161762_);" d="
		M83.6,17.8c3.6,0,6.5,2,6.5,4.5c0,2.4-2.9,4.4-6.5,4.4s-6.5-2-6.5-4.4C77.1,19.9,80,17.8,83.6,17.8L83.6,17.8z"></path></g></svg>