<svg xmlns="http://www.w3.org/2000/svg" xmlns:xlink="http://www.w3.org/1999/xlink" viewBox="55 55 200 200" version="1.1">
  <g id="surface1">
    <path style="stroke:none;fill-rule:nonzero;fill:#b6c8d3;fill-opacity:1;" d="M 205.394531 149.554688 L 198.457031 118.285156 C 191.304688 88.066406 160.980469 69.398438 130.785156 76.609375 C 100.328125 82.601562 80.507812 112.183594 86.5625 142.644531 L 93.25 173.96875 C 95.476562 184.382812 94.222656 195.234375 89.683594 204.871094 L 155.503906 190.539062 L 155.667969 190.507812 L 221.484375 176.175781 C 213.351562 169.300781 207.699219 159.949219 205.394531 149.554688"/>
    <path style="stroke:none;fill-rule:nonzero;fill:#e6edf0;fill-opacity:1;" d="M 116.601562 81.429688 C 120.992188 79.246094 125.742188 77.601562 130.785156 76.609375 C 135.785156 75.414062 140.789062 74.933594 145.691406 75.09375 L 145.667969 74.984375 C 143.917969 66.953125 135.988281 61.855469 127.953125 63.605469 C 119.921875 65.355469 114.828125 73.285156 116.574219 81.316406 L 116.601562 81.429688"/>
    <path style="stroke:none;fill-rule:nonzero;fill:#e6edf0;fill-opacity:1;" d="M 228.929688 197.320312 L 91.703125 227.191406 C 88.378906 227.917969 85.09375 225.808594 84.371094 222.484375 L 82.226562 212.628906 C 81.503906 209.304688 83.613281 206.019531 86.9375 205.296875 L 224.164062 175.425781 C 227.488281 174.699219 230.769531 176.808594 231.492188 180.132812 L 233.636719 189.988281 C 234.363281 193.3125 232.253906 196.59375 228.929688 197.320312"/>
    <path style="stroke:none;fill-rule:nonzero;fill:#cedbe2;fill-opacity:1;" d="M 133.808594 218.027344 C 138.136719 231.109375 151.738281 239.074219 165.5 236.078125 C 179.265625 233.082031 188.320312 220.183594 186.824219 206.484375 L 133.808594 218.027344"/>
  </g>
</svg>